 <svg version="1.0" xmlns="http://www.w3.org/2000/svg" width="700.000000pt" height="700.000000pt" viewBox="0 0 700.000000 700.000000" preserveAspectRatio="xMidYMid meet">
<metadata>
Created by potrace 1.12, written by Peter Selinger 2001-2015
</metadata>
<g transform="translate(0.000000,700.000000) scale(0.100000,-0.100000)" fill="#000000" stroke="none">
<path d="M2885 6170 c-431 -45 -917 -241 -1275 -515 -85 -64 -307 -281 -380
-370 -66 -81 -107 -140 -172 -245 -90 -146 -113 -200 -86 -200 6 0 34 -11 62
-24 57 -27 227 -88 232 -83 2 1 32 50 66 108 215 358 514 631 878 801 162 76
163 76 272 112 242 80 433 110 688 110 214 0 326 -12 500 -50 415 -93 759
-280 1045 -569 140 -141 229 -256 317 -409 167 -292 245 -608 234 -946 -3 -91
-10 -192 -16 -225 -18 -102 -19 -98 23 -107 21 -4 63 -19 94 -33 49 -23 159
-54 189 -55 6 0 14 17 17 38 3 20 14 82 23 137 23 140 23 463 0 605 -48 298
-167 607 -327 850 -285 435 -731 774 -1240 944 -311 104 -456 128 -799 131
-146 2 -301 0 -345 -5z m526 -40 c334 -33 625 -116 916 -260 699 -347 1162
-998 1234 -1735 18 -183 0 -507 -32 -584 -8 -20 -14 -22 -45 -16 -43 8 -171
58 -186 73 -6 6 -6 33 1 83 50 362 -7 718 -169 1054 -225 466 -616 818 -1132
1019 -125 49 -251 83 -433 118 -105 19 -153 22 -375 23 -201 0 -278 -4 -362
-18 -334 -56 -632 -174 -904 -355 -257 -172 -449 -373 -615 -643 -34 -55 -65
-99 -70 -99 -16 0 -202 69 -212 79 -16 16 114 229 224 366 320 399 782 693
1287 821 117 30 337 67 457 77 92 8 320 6 416 -3z"></path>
<path d="M3110 5494 c-14 -3 -81 -14 -150 -25 -555 -92 -1050 -391 -1401 -849
-220 -286 -379 -675 -430 -1050 -19 -136 -16 -440 5 -575 50 -322 168 -621
351 -895 165 -247 377 -452 633 -614 49 -31 94 -56 100 -56 16 0 142 228 142
256 0 7 -35 34 -77 60 -633 394 -972 1174 -827 1902 39 197 72 297 155 472
144 302 373 563 665 758 416 278 956 378 1446 268 54 -13 100 -20 102 -17 30
49 92 178 106 219 21 63 26 59 -108 92 -159 40 -311 57 -504 57 -100 1 -194
-1 -208 -3z m365 -44 c185 -16 378 -52 404 -77 13 -11 9 -25 -30 -99 -24 -48
-49 -88 -55 -91 -6 -2 -63 6 -125 19 -100 20 -143 23 -354 23 -254 0 -357 -13
-540 -67 -593 -174 -1070 -623 -1281 -1204 -256 -707 -73 -1491 469 -2011 78
-74 163 -142 290 -230 26 -18 47 -40 47 -48 0 -21 -65 -148 -84 -164 -18 -15
-27 -11 -136 62 -504 338 -847 908 -911 1515 -15 144 -6 446 16 567 68 372
214 701 440 990 90 115 303 318 425 407 416 300 936 449 1425 408z"></path>
<path d="M4218 4913 c-27 -7 -31 -36 -23 -216 4 -99 4 -168 -2 -166 -4 2 -59
59 -122 127 -64 69 -120 122 -131 122 -23 0 -43 -24 -42 -53 0 -12 45 -132
100 -267 54 -135 114 -285 132 -335 46 -124 55 -133 99 -97 l22 17 -22 70
c-11 39 -43 124 -69 190 -27 66 -58 145 -70 175 l-20 55 42 -50 c80 -94 105
-116 125 -108 41 14 43 22 43 146 0 77 3 118 10 111 11 -11 115 -247 172 -389
46 -116 56 -130 92 -121 44 11 41 42 -12 161 -27 61 -97 224 -156 363 -94 220
-126 279 -148 271 -2 -1 -11 -3 -20 -6z"></path>
<path d="M3645 4636 c-60 -26 -82 -41 -89 -59 -8 -21 16 -83 140 -372 82 -191
154 -349 160 -352 16 -6 167 53 198 78 31 24 34 54 6 69 -16 9 -33 4 -86 -21
-38 -18 -69 -28 -74 -23 -5 5 -27 56 -49 113 -31 80 -38 107 -28 113 6 5 29
18 50 30 37 22 54 54 43 83 -8 22 -41 18 -86 -10 -22 -14 -44 -25 -49 -25 -9
0 -121 255 -121 275 0 6 28 24 63 40 56 27 62 33 62 60 0 26 -4 30 -30 32 -16
1 -66 -13 -110 -31z"></path>
<path d="M3228 4514 c-16 -8 -28 -19 -28 -24 0 -4 24 -59 54 -122 30 -62 105
-230 167 -373 61 -143 117 -266 124 -274 11 -11 29 -4 109 44 108 65 120 76
111 105 -9 29 -48 26 -113 -11 -43 -24 -57 -28 -63 -17 -8 12 -143 314 -251
562 -49 113 -69 132 -110 110z"></path>
<path d="M2975 4411 c-61 -15 -95 -40 -95 -69 0 -25 158 -453 252 -682 41 -99
45 -105 72 -105 56 0 55 19 -18 211 -37 99 -69 185 -72 192 -2 7 3 15 12 19
27 10 65 -39 124 -159 72 -147 73 -149 110 -137 16 6 31 17 34 25 3 8 -26 79
-64 158 -55 114 -78 151 -109 176 -36 29 -38 34 -30 63 28 99 -21 245 -96 288
-39 22 -82 29 -120 20z m67 -92 c31 -17 58 -86 58 -154 0 -109 -26 -112 -61
-7 -12 37 -30 87 -41 110 -25 59 -8 79 44 51z"></path>
<path d="M2588 4286 c-9 -21 5 -89 87 -417 97 -386 114 -438 147 -427 33 11
34 58 2 176 -6 19 1 25 51 48 38 16 61 22 68 15 5 -5 28 -42 51 -83 23 -40 49
-74 59 -76 26 -5 47 16 47 47 0 47 -299 562 -401 691 -32 40 -45 50 -69 50
-23 0 -33 -6 -42 -24z m231 -384 c40 -68 71 -125 69 -127 -14 -13 -79 -32 -83
-24 -6 9 -85 295 -85 307 0 10 20 -22 99 -156z"></path>
<path d="M2202 4139 c-12 -5 -24 -19 -27 -31 -8 -31 182 -787 203 -811 9 -10
25 -17 36 -15 28 4 31 40 11 118 -11 41 -13 66 -6 74 10 12 110 51 115 45 2
-2 25 -41 51 -86 25 -46 51 -83 57 -83 24 0 48 23 48 46 0 75 -395 733 -449
747 -9 2 -27 0 -39 -4z m197 -387 c45 -77 81 -141 81 -144 0 -7 -79 -32 -84
-27 -2 2 -20 65 -40 139 -20 74 -39 143 -42 153 -12 39 8 10 85 -121z"></path>
<path d="M1902 3968 c-7 -7 -12 -16 -12 -21 0 -5 38 -97 86 -205 47 -107 83
-200 81 -206 -6 -15 -99 -48 -108 -39 -4 5 -39 85 -77 178 -97 236 -91 225
-122 225 -30 0 -50 -16 -50 -41 0 -18 33 -100 195 -476 73 -170 114 -255 126
-258 23 -8 59 11 59 31 0 8 -20 64 -45 124 -25 60 -45 116 -45 124 0 13 96 54
104 45 9 -10 55 -110 76 -164 29 -74 37 -85 64 -85 27 0 46 18 46 42 0 25
-299 721 -314 730 -17 12 -51 9 -64 -4z"></path>
<path d="M6085 3730 c-86 -11 -268 -49 -278 -59 -5 -5 -9 -91 -9 -192 0 -360
-70 -688 -208 -984 -16 -33 -38 -80 -49 -105 -124 -263 -396 -607 -639 -807
-145 -120 -306 -235 -372 -266 -8 -4 -37 -21 -65 -37 -131 -78 -506 -230 -569
-230 -9 0 -24 -4 -34 -10 -24 -14 -223 -57 -302 -65 -36 -4 -74 -9 -85 -11
-54 -12 -390 -15 -475 -5 -52 6 -135 16 -185 21 -49 6 -135 22 -190 36 -103
25 -312 92 -330 104 -5 4 -26 13 -45 20 -75 28 -275 133 -358 188 -144 96
-173 118 -267 201 -49 45 -97 81 -105 81 -28 0 -130 -77 -256 -194 l-64 -59
27 -31 c38 -46 218 -200 297 -254 38 -26 101 -69 140 -95 39 -26 148 -85 241
-131 341 -167 630 -248 1014 -286 143 -14 326 -12 521 5 228 20 307 35 565
106 17 4 50 13 75 20 25 6 49 16 55 20 5 5 16 9 25 9 14 0 119 40 230 87 471
200 955 586 1262 1008 121 166 287 461 352 625 10 25 23 59 31 75 23 54 84
258 100 335 64 305 70 357 70 650 l0 235 -30 1 c-16 1 -57 -2 -90 -6z m88 -75
c14 -63 0 -385 -23 -540 -46 -305 -125 -556 -265 -840 -155 -313 -340 -570
-581 -806 -406 -396 -869 -655 -1419 -794 -262 -66 -391 -80 -730 -80 -318 1
-418 11 -645 66 -366 89 -718 253 -1006 470 -114 86 -244 203 -244 220 0 8 15
29 33 46 56 52 210 173 221 173 6 0 47 -32 91 -71 344 -305 832 -517 1307
-568 145 -16 466 -14 610 5 449 57 904 240 1263 508 261 195 447 391 627 660
99 148 207 355 268 511 41 107 107 349 125 459 21 132 38 389 32 483 -4 56 -2
85 5 89 19 12 250 52 288 51 31 -2 35 -5 43 -42z"></path>
<path d="M4433 3650 c-32 -13 -29 -39 17 -129 21 -43 96 -209 165 -367 69
-159 131 -295 138 -301 10 -10 33 0 111 47 55 32 103 65 108 73 5 10 1 23 -12
38 l-19 24 -70 -37 c-39 -20 -72 -34 -75 -30 -5 8 -136 305 -225 508 -83 191
-87 195 -138 174z"></path>
<path d="M4142 3568 c-7 -7 -12 -25 -12 -41 0 -30 173 -736 189 -774 15 -34
46 -46 66 -26 18 17 18 18 -9 126 l-14 59 42 17 c84 37 77 39 131 -54 32 -54
56 -85 66 -85 22 0 49 27 49 48 0 36 -267 495 -386 665 -46 64 -59 77 -82 77
-16 0 -33 -5 -40 -12z m214 -383 c41 -70 74 -131 74 -135 0 -13 -71 -33 -80
-24 -8 9 -80 267 -80 287 0 17 8 5 86 -128z"></path>
<path d="M3951 3469 c-22 -9 -23 -14 -18 -57 3 -26 29 -148 57 -271 28 -123
49 -225 47 -228 -4 -3 -55 82 -235 395 -41 70 -70 86 -102 57 -11 -10 -20 -24
-20 -31 0 -7 26 -55 58 -106 32 -51 73 -120 92 -153 52 -93 202 -343 244 -407
28 -44 42 -58 61 -58 19 0 55 22 55 35 0 1 -20 85 -44 186 -54 221 -112 494
-122 567 -6 48 -24 83 -42 81 -4 0 -18 -5 -31 -10z"></path>
<path d="M3538 3249 c-31 -18 -36 -4 156 -523 53 -143 100 -264 105 -269 17
-17 60 2 67 28 4 16 -32 131 -121 377 -69 194 -133 363 -141 375 -16 25 -38
29 -66 12z"></path>
<path d="M3285 3166 c-124 -50 -127 -53 -123 -89 3 -29 6 -32 38 -31 19 0 42
4 51 8 12 5 40 -50 149 -293 73 -165 140 -303 148 -306 17 -6 62 20 62 36 0 6
-58 142 -130 303 -71 161 -130 295 -130 298 0 3 18 13 40 23 42 19 53 48 28
73 -18 18 -46 14 -133 -22z"></path>
<path d="M2947 3049 c-44 -26 -62 -134 -33 -204 21 -49 88 -118 175 -179 93
-65 135 -111 172 -190 32 -68 37 -127 13 -147 -18 -15 -32 -2 -66 60 -26 47
-88 39 -88 -13 0 -31 48 -105 80 -121 79 -41 148 -2 169 94 14 66 7 109 -31
184 -40 79 -98 140 -193 202 -111 73 -155 127 -155 193 0 47 23 58 65 32 33
-21 37 -21 60 -6 33 21 31 41 -4 77 -26 25 -36 29 -88 29 -32 0 -66 -5 -76
-11z"></path>
<path d="M5137 2943 c-3 -5 -15 -37 -27 -73 -54 -164 -186 -399 -315 -565 -70
-90 -249 -267 -340 -336 -310 -234 -679 -373 -1056 -395 -150 -9 -444 24 -558
63 -24 8 -47 11 -51 6 -4 -4 -24 -47 -44 -95 -20 -48 -50 -116 -67 -153 -16
-36 -27 -70 -24 -75 7 -11 142 -54 215 -68 145 -29 188 -33 361 -39 280 -9
502 20 739 98 138 45 153 51 290 116 492 232 894 641 1117 1136 59 129 118
296 108 305 -3 3 -72 21 -153 39 -81 18 -157 35 -169 38 -12 3 -24 2 -26 -2z
m183 -62 c89 -19 126 -32 128 -43 4 -22 -70 -212 -129 -331 -71 -142 -136
-247 -221 -359 -389 -511 -940 -828 -1558 -899 -226 -26 -562 0 -770 58 -87
24 -87 22 -29 158 28 66 56 126 64 134 11 11 27 10 101 -7 292 -68 618 -59
907 24 188 53 398 150 553 255 216 145 439 374 577 592 51 79 149 278 177 357
27 76 37 90 59 90 9 0 72 -13 141 -29z"></path>
<path d="M2675 2878 c-38 -16 -76 -35 -82 -40 -21 -17 -15 -51 26 -144 21 -49
87 -203 146 -341 123 -289 109 -276 225 -229 82 34 122 63 118 89 -6 42 -33
44 -104 9 -37 -18 -70 -30 -75 -25 -4 4 -26 55 -49 113 -38 95 -40 106 -25
115 72 42 96 67 93 93 -4 37 -36 40 -93 6 -25 -14 -48 -24 -50 -22 -6 6 -112
249 -117 266 -2 8 23 26 62 45 59 29 65 35 65 62 0 27 -3 30 -35 32 -21 1 -63
-10 -105 -29z"></path>
<path d="M2346 2790 c-73 -36 -86 -48 -86 -72 0 -10 39 -101 86 -201 48 -100
112 -240 143 -312 69 -158 67 -155 95 -155 39 0 52 25 36 68 -11 31 -84 203
-136 320 l-14 32 40 16 c59 24 72 61 29 84 -13 8 -29 6 -55 -5 -20 -8 -40 -15
-45 -15 -8 0 -79 131 -79 145 0 2 22 16 48 29 67 34 80 51 57 76 -24 27 -49
24 -119 -10z"></path>
</g>
</svg>