<svg viewBox="0 0 500 500" xmlns="http://www.w3.org/2000/svg">
  <defs>
    <pattern id="pattern-0" x="0" y="0" width="25" height="25" patternUnits="userSpaceOnUse" viewBox="0 0 100 100">
      <rect x="0" y="0" width="50" height="100" style="fill: black;"></rect>
    </pattern>
  </defs>
  <g transform="matrix(0.081627, 0, 0, -0.081627, -56.479164, 522.104919)" fill="#000000" stroke="none" style="">
    <path d="M 2885 6170 C 2454 6125 1968 5929 1610 5655 C 1525 5591 1303 5374 1230 5285 C 1164 5204 1123 5145 1058 5040 C 968 4894 945 4840 972 4840 C 978 4840 1006 4829 1034 4816 C 1091 4789 1261 4728 1266 4733 C 1268 4734 1298 4783 1332 4841 C 1547 5199 1846 5472 2210 5642 C 2372 5718 2373 5718 2482 5754 C 2724 5834 2915 5864 3170 5864 C 3384 5864 3496 5852 3670 5814 C 4085 5721 4429 5534 4715 5245 C 4855 5104 4944 4989 5032 4836 C 5199 4544 5277 4228 5266 3890 C 5263 3799 5256 3698 5250 3665 C 5232 3563 5231 3567 5273 3558 C 5294 3554 5336 3539 5367 3525 C 5416 3502 5526 3471 5556 3470 C 5562 3470 5570 3487 5573 3508 C 5576 3528 5587 3590 5596 3645 C 5619 3785 5619 4108 5596 4250 C 5548 4548 5429 4857 5269 5100 C 4984 5535 4538 5874 4029 6044 C 3718 6148 3573 6172 3230 6175 C 3084 6177 2929 6175 2885 6170 Z" style="fill: rgb(120, 0, 232);"></path>
    <path d="M 3110 5494 C 3096 5491 3029 5480 2960 5469 C 2405 5377 1910 5078 1559 4620 C 1339 4334 1180 3945 1129 3570 C 1110 3434 1113 3130 1134 2995 C 1184 2673 1302 2374 1485 2100 C 1650 1853 1862 1648 2118 1486 C 2167 1455 2212 1430 2218 1430 C 2234 1430 2360 1658 2360 1686 C 2360 1693 2325 1720 2283 1746 C 1650 2140 1311 2920 1456 3648 C 1495 3845 1528 3945 1611 4120 C 1755 4422 1984 4683 2276 4878 C 2692 5156 3232 5256 3722 5146 C 3776 5133 3822 5126 3824 5129 C 3854 5178 3916 5307 3930 5348 C 3951 5411 3956 5407 3822 5440 C 3663 5480 3511 5497 3318 5497 C 3218 5498 3124 5496 3110 5494 Z" style="fill: rgb(255, 0, 12);"></path>
    <path d="M4218 4913 c-27 -7 -31 -36 -23 -216 4 -99 4 -168 -2 -166 -4 2 -59
59 -122 127 -64 69 -120 122 -131 122 -23 0 -43 -24 -42 -53 0 -12 45 -132
100 -267 54 -135 114 -285 132 -335 46 -124 55 -133 99 -97 l22 17 -22 70
c-11 39 -43 124 -69 190 -27 66 -58 145 -70 175 l-20 55 42 -50 c80 -94 105
-116 125 -108 41 14 43 22 43 146 0 77 3 118 10 111 11 -11 115 -247 172 -389
46 -116 56 -130 92 -121 44 11 41 42 -12 161 -27 61 -97 224 -156 363 -94 220
-126 279 -148 271 -2 -1 -11 -3 -20 -6z"></path>
    <path d="M3645 4636 c-60 -26 -82 -41 -89 -59 -8 -21 16 -83 140 -372 82 -191
154 -349 160 -352 16 -6 167 53 198 78 31 24 34 54 6 69 -16 9 -33 4 -86 -21
-38 -18 -69 -28 -74 -23 -5 5 -27 56 -49 113 -31 80 -38 107 -28 113 6 5 29
18 50 30 37 22 54 54 43 83 -8 22 -41 18 -86 -10 -22 -14 -44 -25 -49 -25 -9
0 -121 255 -121 275 0 6 28 24 63 40 56 27 62 33 62 60 0 26 -4 30 -30 32 -16
1 -66 -13 -110 -31z"></path>
    <path d="M3228 4514 c-16 -8 -28 -19 -28 -24 0 -4 24 -59 54 -122 30 -62 105
-230 167 -373 61 -143 117 -266 124 -274 11 -11 29 -4 109 44 108 65 120 76
111 105 -9 29 -48 26 -113 -11 -43 -24 -57 -28 -63 -17 -8 12 -143 314 -251
562 -49 113 -69 132 -110 110z"></path>
    <path d="M2975 4411 c-61 -15 -95 -40 -95 -69 0 -25 158 -453 252 -682 41 -99
45 -105 72 -105 56 0 55 19 -18 211 -37 99 -69 185 -72 192 -2 7 3 15 12 19
27 10 65 -39 124 -159 72 -147 73 -149 110 -137 16 6 31 17 34 25 3 8 -26 79
-64 158 -55 114 -78 151 -109 176 -36 29 -38 34 -30 63 28 99 -21 245 -96 288
-39 22 -82 29 -120 20z m67 -92 c31 -17 58 -86 58 -154 0 -109 -26 -112 -61
-7 -12 37 -30 87 -41 110 -25 59 -8 79 44 51z"></path>
    <path d="M2588 4286 c-9 -21 5 -89 87 -417 97 -386 114 -438 147 -427 33 11
34 58 2 176 -6 19 1 25 51 48 38 16 61 22 68 15 5 -5 28 -42 51 -83 23 -40 49
-74 59 -76 26 -5 47 16 47 47 0 47 -299 562 -401 691 -32 40 -45 50 -69 50
-23 0 -33 -6 -42 -24z m231 -384 c40 -68 71 -125 69 -127 -14 -13 -79 -32 -83
-24 -6 9 -85 295 -85 307 0 10 20 -22 99 -156z"></path>
    <path d="M2202 4139 c-12 -5 -24 -19 -27 -31 -8 -31 182 -787 203 -811 9 -10
25 -17 36 -15 28 4 31 40 11 118 -11 41 -13 66 -6 74 10 12 110 51 115 45 2
-2 25 -41 51 -86 25 -46 51 -83 57 -83 24 0 48 23 48 46 0 75 -395 733 -449
747 -9 2 -27 0 -39 -4z m197 -387 c45 -77 81 -141 81 -144 0 -7 -79 -32 -84
-27 -2 2 -20 65 -40 139 -20 74 -39 143 -42 153 -12 39 8 10 85 -121z"></path>
    <path d="M1902 3968 c-7 -7 -12 -16 -12 -21 0 -5 38 -97 86 -205 47 -107 83
-200 81 -206 -6 -15 -99 -48 -108 -39 -4 5 -39 85 -77 178 -97 236 -91 225
-122 225 -30 0 -50 -16 -50 -41 0 -18 33 -100 195 -476 73 -170 114 -255 126
-258 23 -8 59 11 59 31 0 8 -20 64 -45 124 -25 60 -45 116 -45 124 0 13 96 54
104 45 9 -10 55 -110 76 -164 29 -74 37 -85 64 -85 27 0 46 18 46 42 0 25
-299 721 -314 730 -17 12 -51 9 -64 -4z"></path>
    <path d="M 6085 3730 C 5999 3719 5817 3681 5807 3671 C 5802 3666 5798 3580 5798 3479 C 5798 3119 5728 2791 5590 2495 C 5574 2462 5552 2415 5541 2390 C 5417 2127 5145 1783 4902 1583 C 4757 1463 4596 1348 4530 1317 C 4522 1313 4493 1296 4465 1280 C 4334 1202 3959 1050 3896 1050 C 3887 1050 3872 1046 3862 1040 C 3838 1026 3639 983 3560 975 C 3524 971 3486 966 3475 964 C 3421 952 3085 949 3000 959 C 2948 965 2865 975 2815 980 C 2766 986 2680 1002 2625 1016 C 2522 1041 2313 1108 2295 1120 C 2290 1124 2269 1133 2250 1140 C 2175 1168 1975 1273 1892 1328 C 1748 1424 1719 1446 1625 1529 C 1576 1574 1528 1610 1520 1610 C 1492 1610 1390 1533 1264 1416 L 1200 1357 L 1227 1326 C 1265 1280 1445 1126 1524 1072 C 1562 1046 1625 1003 1664 977 C 1703 951 1812 892 1905 846 C 2246 679 2535 598 2919 560 C 3062 546 3245 548 3440 565 C 3668 585 3747 600 4005 671 C 4022 675 4055 684 4080 691 C 4105 697 4129 707 4135 711 C 4140 716 4151 720 4160 720 C 4174 720 4279 760 4390 807 C 4861 1007 5345 1393 5652 1815 C 5773 1981 5939 2276 6004 2440 C 6014 2465 6027 2499 6035 2515 C 6058 2569 6119 2773 6135 2850 C 6199 3155 6205 3207 6205 3500 L 6205 3735 L 6175 3736 C 6159 3737 6118 3734 6085 3730 Z M 5412 2104 C 5511 2252 6025 2559 5885 2275 C 5730 1962 5545 1705 5304 1469 C 4898 1073 4435 814 3885 675 C 3623 609 3494 595 3155 595 C 2837 596 2737 606 2510 661 C 2144 750 1792 914 1504 1131 C 1390 1217 1260 1334 1260 1351 C 1260 1359 1275 1380 1293 1397 C 1349 1449 1503 1570 1514 1570 C 1520 1570 1561 1538 1605 1499 C 1949 1194 2437 982 2912 931 C 3057 915 3378 917 3522 936 C 3971 993 4426 1176 4785 1444 C 5046 1639 5232 1835 5412 2104 Z"></path>
    <path d="M4433 3650 c-32 -13 -29 -39 17 -129 21 -43 96 -209 165 -367 69
-159 131 -295 138 -301 10 -10 33 0 111 47 55 32 103 65 108 73 5 10 1 23 -12
38 l-19 24 -70 -37 c-39 -20 -72 -34 -75 -30 -5 8 -136 305 -225 508 -83 191
-87 195 -138 174z"></path>
    <path d="M4142 3568 c-7 -7 -12 -25 -12 -41 0 -30 173 -736 189 -774 15 -34
46 -46 66 -26 18 17 18 18 -9 126 l-14 59 42 17 c84 37 77 39 131 -54 32 -54
56 -85 66 -85 22 0 49 27 49 48 0 36 -267 495 -386 665 -46 64 -59 77 -82 77
-16 0 -33 -5 -40 -12z m214 -383 c41 -70 74 -131 74 -135 0 -13 -71 -33 -80
-24 -8 9 -80 267 -80 287 0 17 8 5 86 -128z"></path>
    <path d="M3951 3469 c-22 -9 -23 -14 -18 -57 3 -26 29 -148 57 -271 28 -123
49 -225 47 -228 -4 -3 -55 82 -235 395 -41 70 -70 86 -102 57 -11 -10 -20 -24
-20 -31 0 -7 26 -55 58 -106 32 -51 73 -120 92 -153 52 -93 202 -343 244 -407
28 -44 42 -58 61 -58 19 0 55 22 55 35 0 1 -20 85 -44 186 -54 221 -112 494
-122 567 -6 48 -24 83 -42 81 -4 0 -18 -5 -31 -10z"></path>
    <path d="M3538 3249 c-31 -18 -36 -4 156 -523 53 -143 100 -264 105 -269 17
-17 60 2 67 28 4 16 -32 131 -121 377 -69 194 -133 363 -141 375 -16 25 -38
29 -66 12z"></path>
    <path d="M3285 3166 c-124 -50 -127 -53 -123 -89 3 -29 6 -32 38 -31 19 0 42
4 51 8 12 5 40 -50 149 -293 73 -165 140 -303 148 -306 17 -6 62 20 62 36 0 6
-58 142 -130 303 -71 161 -130 295 -130 298 0 3 18 13 40 23 42 19 53 48 28
73 -18 18 -46 14 -133 -22z"></path>
    <path d="M2947 3049 c-44 -26 -62 -134 -33 -204 21 -49 88 -118 175 -179 93
-65 135 -111 172 -190 32 -68 37 -127 13 -147 -18 -15 -32 -2 -66 60 -26 47
-88 39 -88 -13 0 -31 48 -105 80 -121 79 -41 148 -2 169 94 14 66 7 109 -31
184 -40 79 -98 140 -193 202 -111 73 -155 127 -155 193 0 47 23 58 65 32 33
-21 37 -21 60 -6 33 21 31 41 -4 77 -26 25 -36 29 -88 29 -32 0 -66 -5 -76
-11z"></path>
    <path d="M 5149.251 2943 C 5146.251 2938 5134.251 2906 5122.251 2870 C 5068.251 2706 4936.251 2471 4807.251 2305 C 4737.251 2215 4558.251 2038 4467.251 1969 C 4157.251 1735 3788.251 1596 3411.251 1574 C 3261.251 1565 2967.251 1598 2853.251 1637 C 2829.251 1645 2806.251 1648 2802.251 1643 C 2798.251 1639 2778.251 1596 2758.251 1548 C 2738.251 1500 2708.251 1432 2691.251 1395 C 2675.251 1359 2664.251 1325 2667.251 1320 C 2674.251 1309 2809.251 1266 2882.251 1252 C 3027.251 1223 3070.251 1219 3243.251 1213 C 3523.251 1204 3745.251 1233 3982.251 1311 C 4120.251 1356 4135.251 1362 4272.251 1427 C 4764.251 1659 5166.251 2068 5389.251 2563 C 5448.251 2692 5507.251 2859 5497.251 2868 C 5494.251 2871 5425.251 2889 5344.251 2907 C 5263.251 2925 5187.251 2942 5175.251 2945 C 5163.251 2948 5151.251 2947 5149.251 2943 Z" style="fill: rgb(232, 129, 15);"></path>
    <path d="M2675 2878 c-38 -16 -76 -35 -82 -40 -21 -17 -15 -51 26 -144 21 -49
87 -203 146 -341 123 -289 109 -276 225 -229 82 34 122 63 118 89 -6 42 -33
44 -104 9 -37 -18 -70 -30 -75 -25 -4 4 -26 55 -49 113 -38 95 -40 106 -25
115 72 42 96 67 93 93 -4 37 -36 40 -93 6 -25 -14 -48 -24 -50 -22 -6 6 -112
249 -117 266 -2 8 23 26 62 45 59 29 65 35 65 62 0 27 -3 30 -35 32 -21 1 -63
-10 -105 -29z"></path>
    <path d="M2346 2790 c-73 -36 -86 -48 -86 -72 0 -10 39 -101 86 -201 48 -100
112 -240 143 -312 69 -158 67 -155 95 -155 39 0 52 25 36 68 -11 31 -84 203
-136 320 l-14 32 40 16 c59 24 72 61 29 84 -13 8 -29 6 -55 -5 -20 -8 -40 -15
-45 -15 -8 0 -79 131 -79 145 0 2 22 16 48 29 67 34 80 51 57 76 -24 27 -49
24 -119 -10z"></path>
    <path d="M 6085 3730 C 5999 3719 5817 3681 5807 3671 C 5802 3666 5798 3580 5798 3479 C 5798 3119 5728 2791 5590 2495 C 5574 2462 5552 2415 5541 2390 C 5417 2127 5145 1783 4902 1583 C 4757 1463 4596 1348 4530 1317 C 4522 1313 4493 1296 4465 1280 C 4334 1202 3959 1050 3896 1050 C 3887 1050 3872 1046 3862 1040 C 3838 1026 3639 983 3560 975 C 3524 971 3486 966 3475 964 C 3421 952 3085 949 3000 959 C 2948 965 2865 975 2815 980 C 2766 986 2680 1002 2625 1016 C 2522 1041 2313 1108 2295 1120 C 2290 1124 2269 1133 2250 1140 C 2175 1168 1975 1273 1892 1328 C 1748 1424 1719 1446 1625 1529 C 1576 1574 1528 1610 1520 1610 C 1492 1610 1390 1533 1264 1416 L 1200 1357 L 1227 1326 C 1265 1280 1445 1126 1524 1072 C 1562 1046 1625 1003 1664 977 C 1703 951 1812 892 1905 846 C 2246 679 2535 598 2919 560 C 3062 546 3245 548 3440 565 C 3668 585 3747 600 4005 671 C 4022 675 4055 684 4080 691 C 4105 697 4129 707 4135 711 C 4140 716 4151 720 4160 720 C 4174 720 4279 760 4390 807 C 4861 1007 5345 1393 5652 1815 C 5773 1981 5939 2276 6004 2440 C 6014 2465 6027 2499 6035 2515 C 6058 2569 6119 2773 6135 2850 C 6199 3155 6205 3207 6205 3500 L 6205 3735 L 6175 3736 C 6159 3737 6118 3734 6085 3730 Z" style="fill: rgb(0, 120, 255);"></path>
  </g>
</svg>